<svg xmlns="http://www.w3.org/2000/svg" viewBox="0 0 640 200" role="img" aria-label="Arte na Cozinha — Confeitaria">
  <style>@import url('https://fonts.googleapis.com/css2?family=Lora:ital,wght@1,700&amp;family=Poppins:wght@500&amp;display=swap');</style>
  <rect width="640" height="200" rx="24" fill="#C2185B"/>
  <g transform="translate(20 20) scale(0.8)">
  <circle cx="100" cy="100" r="100" fill="#FFFFFF"/>
  <path d="M100 53 L89 42 A7.6 7.6 0 1 1 100 31.5 A7.6 7.6 0 1 1 111 42 Z" fill="#E9A23B"/>
  <g fill="#E8588A">
    <rect x="73" y="54" width="54" height="27" rx="13.5"/>
    <rect x="63" y="70" width="74" height="27" rx="13.5"/>
    <rect x="53" y="87" width="94" height="31" rx="15.5"/>
  </g>
  <line x1="85" y1="68" x2="90" y2="65" stroke="#E9A23B" stroke-width="3.6" stroke-linecap="round"/><line x1="110" y1="64" x2="114" y2="67" stroke="#F8D0DE" stroke-width="3.6" stroke-linecap="round"/>
  <line x1="80" y1="84" x2="85" y2="86" stroke="#F8D0DE" stroke-width="3.6" stroke-linecap="round"/><line x1="114" y1="83" x2="119" y2="86" stroke="#E9A23B" stroke-width="3.6" stroke-linecap="round"/>
  <line x1="70" y1="104" x2="76" y2="101" stroke="#E9A23B" stroke-width="3.6" stroke-linecap="round"/><line x1="97" y1="106" x2="103" y2="108" stroke="#E9A23B" stroke-width="3.6" stroke-linecap="round"/><line x1="125" y1="104" x2="131" y2="101.5" stroke="#F8D0DE" stroke-width="3.6" stroke-linecap="round"/>
  <path d="M59 117 H141 L129.5 164 Q128.3 170 122 170 H78 Q71.7 170 70.5 164 Z" fill="#FFF6F8"/>
  <g stroke="#C2185B" stroke-width="4" stroke-linecap="round">
    <line x1="79" y1="123" x2="82.5" y2="162"/><line x1="93" y1="123" x2="94.5" y2="162"/>
    <line x1="107" y1="123" x2="105.5" y2="162"/><line x1="121" y1="123" x2="117.5" y2="162"/>
  </g></g>
  <text x="210" y="112" textLength="400" lengthAdjust="spacingAndGlyphs" font-family="Lora, Georgia, serif" font-style="italic" font-weight="700" font-size="60" fill="#FFFFFF">Arte na Cozinha</text>
  <text x="214" y="148" font-family="Poppins, Arial, sans-serif" font-weight="500" font-size="16" letter-spacing="10" fill="#FFFFFF">CONFEITARIA</text>
</svg>
